
        <svg xmlns="http://www.w3.org/2000/svg" xmlns:xlink="http://www.w3.org/1999/xlink" version="1.1" width="3192" height="3192" viewBox="0 0 3192 3192">
			
			<g transform="scale(9.6) translate(10, 10)">
				<defs id="SvgjsDefs1319"><linearGradient id="SvgjsLinearGradient1328"><stop id="SvgjsStop1329" stop-color="#00ff8f" offset="0"/><stop id="SvgjsStop1330" stop-color="#00a1ff" offset="1"/></linearGradient></defs><g id="SvgjsG1320" featureKey="rootContainer" transform="matrix(3.125,0,0,3.125,0,0)" fill="#fff"><path xmlns="http://www.w3.org/2000/svg" d="M0 0h100v100H0z"/></g><g id="SvgjsG1321" featureKey="symbolFeature-0" transform="matrix(0.2325873452874601,0,0,0.2325873452874601,97.02515229859522,56.304581746738)" fill="#000000"><title xmlns="http://www.w3.org/2000/svg">Human Technology</title><path xmlns="http://www.w3.org/2000/svg" d="M480.7,194.8c-4.8-15.3-21-23.8-36.3-19c-4.5,1.4-8.5,3.9-11.9,7.2v0c-11.3,11.3-11.3,29.6,0,41c4.6,4.6,10.7,7.6,17.2,8.3  v5.6c0,9.8-6.1,18.6-15.3,22L393.2,275c-13.9,5.2-23.1,18.4-23.2,33.3v45l-14.2,23.7c-1.7,2.8-0.8,6.5,2.1,8.2  c0.9,0.6,2,0.9,3.1,0.9h9v93.8h-19.4V337.6l13.5-22.5c1.7-2.8,0.8-6.5-2.1-8.2c-0.9-0.6-2-0.9-3.1-0.9h-8.4v-31.7  c0-9.6,7.8-17.4,17.4-17.4c16.2,0,29.4-13.2,29.4-29.4v-44.8c15.7-3.3,25.7-18.7,22.4-34.3c-2.9-13.6-15.1-23.3-29-23  C367.4,63.7,310.9,22.6,245.5,20.3c-1.5-0.1-3-0.1-4.5-0.1C146.9,19.1,68.6,92.3,63.4,186.4c-0.2,3-0.3,28.3-0.3,34.5l-32.2,84.4  c-2.7,7,0.8,14.8,7.8,17.5c1.5,0.6,3.2,0.9,4.8,0.9h44.1v49.8c0,24.2,19.6,43.8,43.8,43.8c0.4,0,0.9,0,1.3,0  c2-0.1,19.5-0.2,49.5-0.3h0.1c8.4,0,15.8,5.7,17.8,13.9l14.2,56.5c0.7,2.7,3.1,4.5,5.8,4.5H376c3.3,0,6-2.7,6-6V386h9  c3.3,0,6-2.7,6-6c0-1.1-0.3-2.2-0.9-3.1L382,353.4v-45.1c0-9.8,6.1-18.6,15.3-22l41.1-15.2c13.9-5.2,23.1-18.4,23.2-33.3v-6.7  C476.9,226.3,485.4,210.1,480.7,194.8z M391.5,137.3c4.5,0,8.8,1.8,12,5c3.2,3.2,5,7.5,5,12h0c0,9.4-7.6,17-17,17  c-9.4,0-17-7.6-17-17C374.5,144.9,382.1,137.3,391.5,137.3z M249.6,435l4.4-7.3l4.4,7.3H249.6z M281.6,344l4.4-7.3l4.4,7.3H281.6z   M315,433.3l-4.4-7.3l8.8,0L315,433.3z M303.1,115.8c-6.6-6.6-6.6-17.4,0-24c6.6-6.6,17.4-6.6,24,0c6.6,6.6,6.6,17.4,0,24  c0,0,0,0,0,0C320.5,122.4,309.7,122.4,303.1,115.8z M338.6,306H329c-3.3,0-6,2.7-6,6c0,1.1,0.3,2.2,0.9,3.1l14.8,24.6v140.1h-17.5  v-33.4l14-23.4c1.7-2.8,0.8-6.5-2.1-8.2c-0.9-0.6-2-0.9-3.1-0.9h-8.9V132.1c15.7-3.3,25.7-18.7,22.4-34.4  C340.2,82,324.8,72,309.1,75.3c-15.7,3.3-25.7,18.7-22.4,34.4c2.4,11.2,11.2,20,22.4,22.4V414H300c-3.3,0-6,2.7-6,6  c0,1.1,0.3,2.2,0.9,3.1l14.3,23.8v33h-17.5V356h9.4c3.3,0,6-2.7,6-6c0-1.1-0.3-2.2-0.9-3.1l-14.6-24.3v-48.4  c0-16.2-13.2-29.4-29.4-29.4c-9.6,0-17.4-7.8-17.4-17.4v-44.8c5.5-1.1,10.5-3.9,14.5-7.8c11.3-11.3,11.4-29.7,0.1-41  c-11.3-11.3-29.7-11.4-41-0.1c-11.3,11.3-11.4,29.7-0.1,41c4,4,9,6.7,14.5,7.9v44.8c0,16.2,13.2,29.4,29.4,29.4  c9.6,0,17.4,7.8,17.4,17.4V324l-13.7,22.9c-1.7,2.8-0.8,6.5,2.1,8.2c0.9,0.6,2,0.9,3.1,0.9h8.6v123.8h-19.4V447h8.8c3.3,0,6-2.7,6-6  c0-1.1-0.3-2.2-0.9-3.1l-14-23.3V308.3c0-14.8-9.3-28.1-23.2-33.3l-41.1-15.2c-9.2-3.4-15.3-12.2-15.3-22v-5.6  c15.9-1.9,27.3-16.3,25.4-32.2c-1.9-15.9-16.3-27.3-32.2-25.4c-15.9,1.9-27.3,16.3-25.4,32.2c1.3,11.4,9.2,20.9,20.2,24.3v6.7  c0,14.8,9.3,28.1,23.2,33.3l41.1,15.2c9.2,3.4,15.3,12.2,15.3,22V414l-14.3,23.9c-1.7,2.8-0.8,6.5,2.1,8.2c0.9,0.6,2,0.9,3.1,0.9  h9.2v32.8h-23.4l-13.1-52c-3.4-13.5-15.5-23-29.5-23h-0.1c-30.9,0.1-47.7,0.2-49.8,0.3c-17.5,0.5-32.2-13.3-32.7-30.8  c0-0.3,0-0.6,0-0.9v-55.8c0-3.3-2.7-6-6-6H43.6c-0.9,0-1.6-0.7-1.5-1.6c0-0.2,0-0.4,0.1-0.5l32.6-85.4c0.3-0.7,0.4-1.4,0.4-2.1  c0-12.4,0.1-32.8,0.3-35c4.8-87.6,77.8-155.9,165.5-154.9c1.4,0,2.8,0,4.2,0.1c60,2.2,111.9,39.6,133.9,95.8  c-14.5,6.9-20.6,24.1-13.7,38.6c3.9,8.2,11.3,14.1,20.2,15.9v44.8c0,9.6-7.8,17.4-17.4,17.4c-16.2,0-29.4,13.2-29.4,29.4V306z   M226.7,166.3L226.7,166.3c-6.6-6.6-6.6-17.4,0-24s17.4-6.6,24,0c6.6,6.6,6.6,17.4,0,24c0,0,0,0,0,0  C244.1,172.9,233.4,172.9,226.7,166.3z M165.2,215.4c-6.6-6.6-6.6-17.4,0-24c6.6-6.6,17.4-6.6,24,0s6.6,17.4,0,24c0,0,0,0,0,0  C182.6,222.1,171.8,222.1,165.2,215.4z M344,325.3l-4.4-7.3l8.8,0L344,325.3z M371.6,374l4.4-7.3l4.4,7.3H371.6z M465,215.4  c-6.6,6.6-17.4,6.6-24,0c-6.6-6.6-6.6-17.4,0-24c6.6-6.6,17.4-6.6,24,0C471.6,198.1,471.6,208.8,465,215.4z"/></g><g id="SvgjsG1322" featureKey="nameFeature-0" transform="matrix(1.044706657271066,0,0,1.044706657271066,54.96598206676042,178.95406126604527)" fill="#000000"><path d="M1.4 40.08 c-0.4 0.04 -0.56 -1.28 -0.24 -1.36 c2.32 -0.6 4.16 -0.96 4.16 -3.92 l0 -17.84 c0 -2.6 -1.68 -3.28 -3.4 -3.72 c-0.32 -0.08 -0.12 -1.36 0.2 -1.32 c1.64 0.2 3.32 0.24 4.88 0.24 c2.96 0 5.76 -0.24 7.84 -0.24 c9.76 0 14.92 5.76 14.92 13.48 c0 7.76 -5.24 14.68 -14.96 14.68 c-1.92 0 -4.4 -0.24 -7.24 -0.24 c-2.36 0 -4.32 0.04 -6.16 0.24 z M15.04 38.04 c6.72 0 10.2 -3.64 10.2 -10.52 c0 -7.52 -4.2 -13.56 -11.6 -13.56 c-2.92 0 -3.84 0.92 -3.84 3 l0 17.84 c0 2.16 1.36 3.24 5.24 3.24 z M36.796 40.08 c-0.4 0.04 -0.56 -1.28 -0.24 -1.36 c2.32 -0.6 4.16 -0.96 4.16 -3.92 l0 -17.84 c0 -2.6 -1.68 -3.32 -3.4 -3.72 c-0.32 -0.08 -0.12 -1.36 0.2 -1.32 c2.96 0.28 7.64 0.24 10.32 0.24 c3.64 0 6.32 -0.16 9.52 -0.24 c0.96 0 0.96 0.64 0.76 1.56 l-0.96 3.76 c-0.12 0.56 -1.12 0.56 -1.28 0 c-0.6 -1.92 -1.8 -3.12 -6.84 -3.12 c-2.92 0 -3.84 0.72 -3.84 2.88 l0 6.56 c0 1.04 0.52 1.24 1.32 1.24 l0.84 0 c3.36 0 6.12 -0.28 7.8 -1.84 c0.4 -0.36 1.28 -0.28 0.92 0.48 l-2.32 5.04 c-0.28 0.68 -0.88 0.6 -1.32 0.04 c-0.92 -1.28 -3 -1.8 -5.4 -1.8 l-0.52 0 c-0.8 0 -1.32 0.2 -1.32 1.24 l0 6.84 c0 2.28 1 3.08 4.4 3.08 c6.24 0 8.48 -2.68 9.44 -4.28 c0.32 -0.48 1.32 -0.28 1.32 0.4 c0 2.12 -1.68 6.08 -4.16 6.08 c-2.12 -0.12 -4.48 -0.24 -7.84 -0.24 c-3.72 0 -7.88 -0.12 -11.56 0.24 z M66.992 40.08 c-0.4 0.04 -0.56 -1.28 -0.24 -1.36 c2.32 -0.6 4.16 -0.96 4.16 -3.92 l0 -17.84 c0 -2.6 -1.68 -3.32 -3.4 -3.72 c-0.32 -0.08 -0.12 -1.36 0.2 -1.32 c2.96 0.28 7.64 0.24 10.32 0.24 c3.64 0 6.32 -0.16 9.52 -0.24 c0.96 0 0.96 0.64 0.76 1.56 l-0.96 3.76 c-0.12 0.56 -1.12 0.56 -1.28 0 c-0.6 -1.92 -1.8 -3.12 -6.84 -3.12 c-2.92 0 -3.84 0.72 -3.84 2.88 l0 6.56 c0 1.04 0.52 1.24 1.32 1.24 l0.84 0 c3.36 0 6.12 -0.28 7.8 -1.84 c0.4 -0.36 1.28 -0.28 0.92 0.48 l-2.32 5.04 c-0.28 0.68 -0.88 0.6 -1.32 0.04 c-0.92 -1.28 -3 -1.8 -5.4 -1.8 l-0.52 0 c-0.8 0 -1.32 0.2 -1.32 1.24 l0 6.84 c0 2.28 1 3.08 4.4 3.08 c6.24 0 8.48 -2.68 9.44 -4.28 c0.32 -0.48 1.32 -0.28 1.32 0.4 c0 2.12 -1.68 6.08 -4.16 6.08 c-2.12 -0.12 -4.48 -0.24 -7.84 -0.24 c-3.72 0 -7.88 -0.12 -11.56 0.24 z M120.908 20.48 c0 7.16 -6.72 10.08 -15.52 8.76 l0 5.84 c0 2.8 1.88 3.28 4.52 3.6 c0.28 0.04 0.08 1.32 -0.24 1.32 l-11.88 0 c-0.32 0 -0.56 -1.28 -0.24 -1.32 c2 -0.28 3.36 -1.04 3.36 -3.6 l0 -17.96 c0 -2.64 -1.44 -3.4 -3.36 -3.92 c-0.32 -0.08 -0.12 -1.32 0.24 -1.28 c1.56 0.2 3.36 0.24 4.6 0.24 c2.84 0 5.28 -0.24 7.32 -0.24 c6.08 0 11.2 2.28 11.2 8.56 z M108.788 13.920000000000002 c-2.64 0 -3.4 0.92 -3.4 3.2 l0 10.2 c6.92 1 10.68 -0.56 10.68 -5.92 c0 -5 -3.24 -7.48 -7.28 -7.48 z M157.464 38.68 c0.56 0.08 0.4 1.32 -0.08 1.32 l-10.28 0 c-0.52 0 -0.56 -1.24 -0.12 -1.32 c1.52 -0.28 3.08 -0.84 1.6 -4.28 l-0.52 -1.2 c-0.4 -0.92 -1.16 -1 -2.4 -1 l-8.24 0 c-1.2 0 -1.96 0.08 -2.32 1 l-0.48 1.2 c-1.44 3.48 0.08 4 2.04 4.28 c0.48 0.08 0.4 1.32 -0.12 1.32 l-8.56 0 c-0.48 0 -0.6 -1.24 -0.12 -1.32 c1.64 -0.28 2.6 -0.88 4.12 -4.28 l6.76 -15.48 c1.56 -3.52 2.04 -5.2 2.04 -6.72 c0 -0.24 2.8 -0.88 2.92 -0.6 l9.76 22.76 c1.44 3.44 2.4 4.08 4 4.32 z M145.54399999999998 30.08 c0.56 0 1.2 -0.08 0.96 -0.64 l-4.88 -11.64 l-4.92 11.64 c-0.24 0.56 0.4 0.64 0.96 0.64 l7.88 0 z M175.38 38.68 c0.32 0.04 0.08 1.32 -0.24 1.32 l-10.68 0 c-0.32 0 -0.56 -1.28 -0.24 -1.32 c2 -0.28 3.36 -1.04 3.36 -3.6 l0 -18.2 c0 -2.52 -1.36 -3.32 -3.36 -3.6 c-0.32 -0.04 -0.08 -1.28 0.24 -1.28 l10.68 0 c0.32 0 0.56 1.24 0.24 1.28 c-1.72 0.24 -3.32 0.8 -3.32 3.6 l0 18.2 c0 2.8 1.6 3.36 3.32 3.6 z M192.22 39.04 c0.32 0 0.24 1.04 0 1.12 c-2.4 0.88 -5.88 0.48 -8.28 -2.08 l-11.4 -12.24 l9.08 -9.28 c2 -2 1.88 -2.92 -0.24 -3.28 c-0.48 -0.08 -0.28 -1.28 0.04 -1.28 l9.04 0 c0.32 0 0.56 1.24 0.16 1.28 c-1.8 0.24 -3.8 1.08 -6.4 3.72 l-7.2 7.4 l10.36 11.04 c2.56 2.68 3.96 3.6 4.84 3.6 z"/></g><g id="SvgjsG1323" featureKey="sloganFeature-0" transform="matrix(0.8799428374583027,0,0,0.8799428374583027,59.120770674387806,226.73480709799836)" fill="#000000"><path d="M5.14 20 c-0.12 0 -0.22 -0.08 -0.24 -0.18 l-3.88 -11.98 c-0.04 -0.08 -0.02 -0.16 0.04 -0.24 c0.04 -0.06 0.12 -0.1 0.2 -0.1 l2.8 0 c0.1 0 0.22 0.08 0.24 0.18 l2.08 7.22 l1.9 -6.86 c0.02 -0.12 0.12 -0.2 0.24 -0.2 l2.54 0 c0.12 0 0.22 0.08 0.26 0.2 l1.92 6.86 l2.04 -7.22 c0.04 -0.1 0.14 -0.18 0.26 -0.18 l2.68 0 c0.08 0 0.16 0.04 0.2 0.1 c0.06 0.08 0.06 0.16 0.04 0.24 l-3.9 11.98 c-0.04 0.1 -0.12 0.18 -0.24 0.18 l-2.34 0 c-0.12 0 -0.22 -0.08 -0.24 -0.18 l-2 -7.1 l-2.04 7.1 c-0.02 0.1 -0.12 0.18 -0.24 0.18 l-2.32 0 z M26.176000000000002 20 l0 -11.98 c0 -0.5 0.1 -0.6 0.26 -0.6 l8.76 0 c0.14 0 0.26 0.1 0.26 0.24 l0 2.26 c0 0.14 -0.12 0.26 -0.26 0.26 l-5.92 0 l0 2.08 l3.74 0 c0.14 0 0.26 0.12 0.26 0.26 l0 2.24 c0 0.14 -0.12 0.26 -0.26 0.26 l-3.74 0 l0 2.14 l5.9 0 c0.14 0 0.26 0.12 0.26 0.26 l0 2.24 c0 0.14 -0.12 0.26 -0.26 0.26 l-8.74 0 c-0.16 0 -0.26 -0.12 -0.26 0.08 z M43.612 20 c-0.14 0 -0.26 -0.12 -0.26 -0.26 l0 -11.98 c0 -0.14 0.12 -0.26 0.26 -0.26 l4.78 0 c1.32 0 2.2 0.28 2.98 0.86 c1.08 0.78 1.52 2.26 1.02 3.52 c-0.26 0.64 -0.7 0.98 -1.3 1.3 c0.86 0.12 1.4 0.68 1.72 1.08 c0.46 0.6 0.7 1.32 0.7 2.16 c0 1.1 -0.44 2 -1.28 2.64 c-0.82 0.62 -1.94 0.94 -3.32 0.94 l-5.3 0 z M46.292 12.08 l1.96 0 c0.4 0 0.72 -0.08 0.94 -0.26 c0.2 -0.18 0.3 -0.42 0.3 -0.74 c0 -0.3 -0.1 -0.54 -0.3 -0.7 c-0.2 -0.18 -0.5 -0.26 -0.86 -0.26 l-2.04 0 l0 1.96 z M46.292 17.54 l2.34 0 c0.6 0 1.06 -0.12 1.4 -0.36 c0.3 -0.22 0.46 -0.52 0.46 -0.94 c0 -0.38 -0.16 -0.66 -0.46 -0.88 c-0.32 -0.22 -0.76 -0.34 -1.32 -0.34 l-2.42 0 l0 2.52 z M72.96400000000001 20 c-0.16 0 -0.26 -0.12 -0.26 -0.26 l0 -11.98 c0 -0.14 0.1 -0.26 0.26 -0.26 l4.54 0 c1.2 0 2.3 0.26 3.26 0.8 c0.96 0.52 1.7 1.26 2.24 2.22 c0.52 0.94 0.8 2.02 0.8 3.22 c0 1.22 -0.28 2.3 -0.82 3.24 c-0.54 0.96 -1.3 1.7 -2.28 2.22 c-0.96 0.54 -2.08 0.8 -3.3 0.8 l-4.44 0 z M75.804 17.2 l1.76 0 c0.58 0 1.12 -0.14 1.58 -0.42 c0.46 -0.3 0.84 -0.7 1.1 -1.22 s0.4 -1.12 0.4 -1.8 c0 -0.66 -0.14 -1.28 -0.42 -1.8 c-0.28 -0.54 -0.66 -0.94 -1.14 -1.24 c-0.48 -0.28 -1.04 -0.44 -1.64 -0.44 l-1.64 0 l0 6.92 z M91.7 20 l0 -11.98 c0 -0.5 0.1 -0.6 0.26 -0.6 l8.76 0 c0.14 0 0.26 0.1 0.26 0.24 l0 2.26 c0 0.14 -0.12 0.26 -0.26 0.26 l-5.92 0 l0 2.08 l3.74 0 c0.14 0 0.26 0.12 0.26 0.26 l0 2.24 c0 0.14 -0.12 0.26 -0.26 0.26 l-3.74 0 l0 2.14 l5.9 0 c0.14 0 0.26 0.12 0.26 0.26 l0 2.24 c0 0.14 -0.12 0.26 -0.26 0.26 l-8.74 0 c-0.16 0 -0.26 -0.12 -0.26 0.08 z M113.13600000000001 20 c-0.1 0 -0.2 -0.06 -0.24 -0.16 l-4 -12 c-0.04 -0.08 -0.02 -0.16 0.02 -0.24 c0.06 -0.06 0.14 -0.1 0.22 -0.1 l2.8 0 c0.1 0 0.2 0.06 0.24 0.18 l2.38 7.82 l2.4 -7.82 c0.04 -0.12 0.14 -0.18 0.24 -0.18 l2.68 0 c0.08 0 0.16 0.04 0.22 0.1 c0.04 0.08 0.06 0.16 0.02 0.24 l-4.06 12 c-0.04 0.1 -0.12 0.16 -0.24 0.16 l-2.68 0 z M128.032 20 l0 -11.98 c0 -0.5 0.1 -0.6 0.26 -0.6 l8.76 0 c0.14 0 0.26 0.1 0.26 0.24 l0 2.26 c0 0.14 -0.12 0.26 -0.26 0.26 l-5.92 0 l0 2.08 l3.74 0 c0.14 0 0.26 0.12 0.26 0.26 l0 2.24 c0 0.14 -0.12 0.26 -0.26 0.26 l-3.74 0 l0 2.14 l5.9 0 c0.14 0 0.26 0.12 0.26 0.26 l0 2.24 c0 0.14 -0.12 0.26 -0.26 0.26 l-8.74 0 c-0.16 0 -0.26 -0.12 -0.26 0.08 z M145.468 20 c-0.14 0 -0.26 -0.12 -0.26 -0.26 l0 -11.98 c0 -0.14 0.12 -0.26 0.26 -0.26 l2.6 0 c0.14 0 0.26 0.12 0.26 0.26 l0 9.36 l4.5 0 c0.14 0 0.26 0.12 0.26 0.26 l0 2.36 c0 0.14 -0.12 0.26 -0.26 0.26 l-7.36 0 z M166.624 20 c-1.2 0 -2.3 -0.28 -3.26 -0.84 c-0.98 -0.56 -1.76 -1.36 -2.34 -2.32 c-0.56 -0.98 -0.84 -2.1 -0.84 -3.3 c0 -1.18 0.28 -2.28 0.84 -3.26 c0.58 -0.98 1.34 -1.76 2.32 -2.32 s2.08 -0.84 3.28 -0.84 c1.18 0 2.28 0.28 3.26 0.84 s1.76 1.34 2.32 2.32 c0.58 0.98 0.86 2.08 0.86 3.26 c0 1.2 -0.28 2.3 -0.86 3.28 c-0.56 0.98 -1.34 1.76 -2.32 2.34 c-0.98 0.56 -2.08 0.84 -3.26 0.84 z M166.664 17.12 c0.58 0 1.12 -0.16 1.6 -0.46 c0.5 -0.32 0.9 -0.74 1.18 -1.3 c0.3 -0.54 0.44 -1.16 0.44 -1.82 c0 -0.64 -0.14 -1.26 -0.44 -1.8 c-0.28 -0.54 -0.68 -0.96 -1.18 -1.28 c-0.48 -0.3 -1.02 -0.46 -1.6 -0.46 c-0.6 0 -1.14 0.16 -1.64 0.46 c-0.52 0.32 -0.92 0.74 -1.22 1.28 c-0.3 0.56 -0.44 1.16 -0.44 1.8 c0 0.66 0.14 1.28 0.44 1.82 c0.32 0.54 0.72 0.98 1.22 1.28 c0.5 0.32 1.04 0.48 1.64 0.48 z M181.20000000000002 20 c-0.14 0 -0.24 -0.12 -0.24 -0.26 l0 -11.98 c0 -0.14 0.1 -0.26 0.24 -0.26 l4.9 0 c1.52 0 2.72 0.38 3.56 1.16 c1.24 1.12 1.66 3.24 1.06 4.8 c-0.22 0.56 -0.6 1.08 -1.08 1.46 c-1.62 1.26 -3.64 1.14 -5.58 1.14 l0 3.68 c0 0.14 -0.12 0.26 -0.26 0.26 l-2.6 0 z M184.06 13.280000000000001 c0 0 2.52 0.28 3.4 -0.3 c0.34 -0.22 0.54 -0.76 0.54 -1.16 c-0.02 -0.44 -0.24 -0.9 -0.6 -1.18 c-0.38 -0.32 -1.32 -0.42 -1.8 -0.42 l-1.54 0.04 l0 3.02 z M198.916 20 l0 -11.98 c0 -0.5 0.1 -0.6 0.26 -0.6 l8.76 0 c0.14 0 0.26 0.1 0.26 0.24 l0 2.26 c0 0.14 -0.12 0.26 -0.26 0.26 l-5.92 0 l0 2.08 l3.74 0 c0.14 0 0.26 0.12 0.26 0.26 l0 2.24 c0 0.14 -0.12 0.26 -0.26 0.26 l-3.74 0 l0 2.14 l5.9 0 c0.14 0 0.26 0.12 0.26 0.26 l0 2.24 c0 0.14 -0.12 0.26 -0.26 0.26 l-8.74 0 c-0.16 0 -0.26 -0.12 -0.26 0.08 z M216.35199999999998 20 c-0.16 0 -0.26 -0.12 -0.26 -0.26 l0 -11.98 c0 -0.14 0.1 -0.26 0.26 -0.26 l4.88 0 c1.52 0 2.72 0.38 3.56 1.16 c1.24 1.12 1.66 3.24 1.06 4.8 c-0.22 0.56 -0.6 1.08 -1.08 1.46 c-0.28 0.22 -0.58 0.38 -0.88 0.54 c0.86 1.36 2.16 4.12 2.16 4.12 c0.02 0.04 0.06 0.1 0.06 0.16 c0 0.14 -0.12 0.26 -0.26 0.26 l-2.96 0 c-0.08 0 -0.18 -0.06 -0.22 -0.14 l-1.74 -3.82 c-0.62 0.04 -1.1 0.02 -1.74 0.02 l0 3.68 c0 0.14 -0.12 0.26 -0.26 0.26 l-2.58 0 z M219.19199999999998 13.280000000000001 c0 0 2.52 0.28 3.4 -0.3 c0.34 -0.22 0.54 -0.76 0.54 -1.16 c-0.02 -0.44 -0.24 -0.9 -0.6 -1.18 c-0.38 -0.32 -1.32 -0.42 -1.8 -0.42 l-1.54 0.04 l0 3.02 z"/></g>
			</g>
		</svg>
	